<mxfile host="65bd71144e">
    <diagram id="z37mUEPp4qOaj20kRLpD" name="Page-1">
        <mxGraphModel dx="1491" dy="1486" grid="1" gridSize="10" guides="1" tooltips="1" connect="1" arrows="1" fold="1" page="1" pageScale="1" pageWidth="850" pageHeight="1100" math="0" shadow="0">
            <root>
                <mxCell id="0"/>
                <mxCell id="1" parent="0"/>
                <mxCell id="BzAyO3Wn1m2_-uCd3Lk2-1" value="Start" style="ellipse;whiteSpace=wrap;html=1;" parent="1" vertex="1">
                    <mxGeometry x="397" y="135" width="120" height="80" as="geometry"/>
                </mxCell>
                <mxCell id="12" value="" style="edgeStyle=none;html=1;" edge="1" parent="1" source="BzAyO3Wn1m2_-uCd3Lk2-6" target="11">
                    <mxGeometry relative="1" as="geometry"/>
                </mxCell>
                <mxCell id="BzAyO3Wn1m2_-uCd3Lk2-6" value="input text&lt;br&gt;(ex: jakarta)" style="shape=parallelogram;perimeter=parallelogramPerimeter;whiteSpace=wrap;html=1;fixedSize=1;" parent="1" vertex="1">
                    <mxGeometry x="389" y="258" width="135" height="71" as="geometry"/>
                </mxCell>
                <mxCell id="14" value="N" style="edgeStyle=none;html=1;" edge="1" parent="1" source="11" target="13">
                    <mxGeometry x="-0.1831" relative="1" as="geometry">
                        <mxPoint as="offset"/>
                    </mxGeometry>
                </mxCell>
                <mxCell id="11" value="if(typeof text &lt;br&gt;==&lt;br&gt;&amp;nbsp;String)" style="rhombus;whiteSpace=wrap;html=1;" vertex="1" parent="1">
                    <mxGeometry x="390" y="375" width="133" height="127" as="geometry"/>
                </mxCell>
                <mxCell id="13" value="Tipe Data Teks&lt;br&gt;Harus String !" style="shape=parallelogram;perimeter=parallelogramPerimeter;whiteSpace=wrap;html=1;fixedSize=1;" vertex="1" parent="1">
                    <mxGeometry x="191" y="402.5" width="140" height="73.5" as="geometry"/>
                </mxCell>
                <mxCell id="22" value="" style="edgeStyle=none;html=1;" edge="1" parent="1" source="17" target="21">
                    <mxGeometry relative="1" as="geometry"/>
                </mxCell>
                <mxCell id="17" value="for(let i = 0; i &amp;lt; text.length; i++){&lt;br&gt;if(text[i] == 'a') {&lt;br&gt;result = result + 'o'&lt;br&gt;}else{&lt;br&gt;result = result + text[i] }&lt;br&gt;}" style="whiteSpace=wrap;html=1;" vertex="1" parent="1">
                    <mxGeometry x="361" y="562" width="192" height="126" as="geometry"/>
                </mxCell>
                <mxCell id="20" value="Y" style="endArrow=classic;html=1;exitX=0.5;exitY=1;exitDx=0;exitDy=0;entryX=0.5;entryY=0;entryDx=0;entryDy=0;" edge="1" parent="1" source="11" target="17">
                    <mxGeometry width="50" height="50" relative="1" as="geometry">
                        <mxPoint x="412" y="592" as="sourcePoint"/>
                        <mxPoint x="462" y="542" as="targetPoint"/>
                    </mxGeometry>
                </mxCell>
                <mxCell id="24" value="" style="edgeStyle=none;html=1;" edge="1" parent="1" source="21" target="23">
                    <mxGeometry relative="1" as="geometry"/>
                </mxCell>
                <mxCell id="21" value="text&lt;br&gt;ex: jokorto" style="shape=parallelogram;perimeter=parallelogramPerimeter;whiteSpace=wrap;html=1;fixedSize=1;" vertex="1" parent="1">
                    <mxGeometry x="390" y="740" width="135" height="70" as="geometry"/>
                </mxCell>
                <mxCell id="23" value="end" style="ellipse;whiteSpace=wrap;html=1;" vertex="1" parent="1">
                    <mxGeometry x="397.5" y="867" width="120" height="78" as="geometry"/>
                </mxCell>
                <mxCell id="25" value="" style="endArrow=classic;html=1;exitX=0.5;exitY=1;exitDx=0;exitDy=0;entryX=0.5;entryY=0;entryDx=0;entryDy=0;" edge="1" parent="1" source="BzAyO3Wn1m2_-uCd3Lk2-1" target="BzAyO3Wn1m2_-uCd3Lk2-6">
                    <mxGeometry width="50" height="50" relative="1" as="geometry">
                        <mxPoint x="422" y="435" as="sourcePoint"/>
                        <mxPoint x="472" y="385" as="targetPoint"/>
                    </mxGeometry>
                </mxCell>
                <mxCell id="26" value="" style="endArrow=classic;html=1;exitX=0.5;exitY=1;exitDx=0;exitDy=0;entryX=0;entryY=0.5;entryDx=0;entryDy=0;" edge="1" parent="1" source="13" target="23">
                    <mxGeometry width="50" height="50" relative="1" as="geometry">
                        <mxPoint x="422" y="695" as="sourcePoint"/>
                        <mxPoint x="472" y="645" as="targetPoint"/>
                        <Array as="points">
                            <mxPoint x="261" y="906"/>
                        </Array>
                    </mxGeometry>
                </mxCell>
            </root>
        </mxGraphModel>
    </diagram>
</mxfile>